<svg xmlns="http://www.w3.org/2000/svg" height="48" width="48" viewBox="0 0 67 71"><defs></defs><g><g><path d="M59.90398,68.02142h-8.62771v-43.76019c0,-0.52147 0.42419,-0.94565 0.94566,-0.94565h6.73639c0.52148,0 0.94566,0.42418 0.94566,0.94565zM38.12708,68.02142h-8.6277v-23.93341c0,-0.52147 0.42418,-0.94565 0.94566,-0.94565h6.73639c0.52134,0 0.94566,0.42418 0.94566,0.94565zM7.72249,68.02142v-12.39496c0,-0.52147 0.42418,-0.94565 0.94566,-0.94565h6.73639c0.52147,0 0.94566,0.42418 0.94566,0.94565v12.39496zM62.65218,68.02142v-43.76019c0,-2.03682 -1.65717,-3.69385 -3.69386,-3.69385h-6.73639c-2.03683,0 -3.69386,1.65715 -3.69386,3.69385v43.76019h-7.65265v-23.93341c0,-2.03683 -1.65702,-3.69386 -3.69386,-3.69386h-6.7364c-2.03683,0 -3.69386,1.65717 -3.69386,3.69386v23.93341h-7.65265v-12.39496c0,-2.03682 -1.65717,-3.69385 -3.69386,-3.69385h-6.73653c-2.03683,0 -3.69386,1.65715 -3.69386,3.69385v12.39496h-3.17637c-0.75892,0 -1.3741,0.61517 -1.3741,1.37408c0,0.75893 0.61519,1.37411 1.3741,1.37411h63.86795c0.75892,0 1.3741,-0.61519 1.3741,-1.37411c0,-0.75891 -0.61519,-1.37408 -1.37411,-1.37408z" fill="#494c63" fill-opacity="1"></path></g><g><path d="M62.64896,1.86102c0.01924,-0.37499 -0.11266,-0.75631 -0.39903,-1.04267c-0.28636,-0.28636 -0.66766,-0.41841 -1.04266,-0.39904c-0.02213,-0.00096 -0.04398,-0.0033 -0.06651,-0.0033h-8.31331c-0.75893,0 -1.3741,0.61519 -1.3741,1.3741c0,0.75892 0.61517,1.3741 1.3741,1.3741h5.13322v0l-13.58394,13.58409v0l-5.12265,-5.12265c-0.25766,-0.25764 -0.60722,-0.40247 -0.97163,-0.40247c-0.36441,0 -0.71398,0.14483 -0.97163,0.40247l-24.70208,24.70222c-0.53659,0.53659 -0.53659,1.40667 0,1.94339c0.26836,0.26809 0.62,0.4022 0.97163,0.4022c0.35163,0 0.70341,-0.13411 0.97163,-0.40247l23.73045,-23.7306v0l5.12265,5.12265c0.53659,0.53659 1.40668,0.53659 1.94341,0l14.55556,-14.55544v0v4.64584c0,0.75892 0.61519,1.3741 1.37411,1.3741c0.75891,0 1.37408,-0.61518 1.37408,-1.3741v-7.82592c0,-0.0224 -0.00233,-0.04425 -0.0033,-0.06651z" fill="#afb0b9" fill-opacity="1"></path></g></g></svg>