<svg xmlns="http://www.w3.org/2000/svg" height="48" width="48" x="0px" y="0px" viewBox="0 0 60 60" xml:space="preserve">  <g transform="translate(1 1)">	  <path fill="none" stroke="#494c63" stroke-width="2" stroke-miterlimit="10" d="M11.6,58v-3.9L1.4,42.2C0.5,41.2,0,39.8,0,38.5V20.8c0-1.9,1.5-3.4,3.4-3.4l0,0l0,0c1.9,0,3.4,1.5,3.4,3.4l0,0V32"></path>    <path fill="none" stroke="#494c63" stroke-width="2" stroke-miterlimit="10" d="M23.2,58V44.9c0-1.5-0.6-3-1.7-4.1l-9.4-9.4c-1.3-1.3-3.5-1.3-4.8,0c0,0,0,0,0,0l0,0c-1.3,1.3-1.3,3.5,0,4.8c0,0,0,0,0,0l7.2,7.2"></path>    <path fill="none" stroke="#494c63" stroke-width="2" stroke-miterlimit="10" d="M46.4,58v-3.9l10.2-11.9c0.9-1.1,1.4-2.4,1.4-3.8V20.8c0-1.9-1.5-3.4-3.4-3.4l0,0l0,0c-1.9,0-3.4,1.5-3.4,3.4l0,0V32"></path>    <path fill="none" stroke="#494c63" stroke-width="2" stroke-miterlimit="10" d="M34.8,58V44.9c0-1.5,0.6-3,1.7-4.1l9.4-9.4c1.3-1.3,3.5-1.3,4.8,0c0,0,0,0,0,0l0,0c1.3,1.3,1.3,3.5,0,4.8c0,0,0,0,0,0l-7.2,7.2"></path>    <line fill="none" stroke="#afb0b9" stroke-width="2" stroke-miterlimit="10" x1="14.5" y1="14.5" x2="43.5" y2="14.5"></line>    <circle fill="none" stroke="#afb0b9" stroke-width="2" stroke-linecap="square" stroke-miterlimit="10" cx="29" cy="14.5" r="14.5"></circle>    <ellipse fill="none" stroke="#afb0b9" stroke-width="2" stroke-linecap="square" stroke-miterlimit="10" cx="29" cy="14.5" rx="6.2" ry="14.5"></ellipse>  </g></svg>